<?xml version="1.0" encoding="UTF-8" standalone="no"?>
<svg
   xmlns:svg="http://www.w3.org/2000/svg"
   xmlns="http://www.w3.org/2000/svg"
   version="1.0"
   width="17"
   height="49">
  <defs />
  <g
     transform="translate(-583,-284)"
     id="wholeNote">
	 <path
       d="M 588.55919,286.48142 C 585.16335,288.30139 583.35391,291.59597 584.46697,294.07438 C 585.65423,296.71802 589.73398,297.4641 593.57355,295.73975 C 597.41311,294.01539 599.56571,290.47035 598.37845,287.82672 C 597.19118,285.18308 593.11144,284.437 589.27187,286.16135 C 589.0319,286.26912 588.78559,286.36009 588.55919,286.48142 z "
       style="fill:#000000;stroke:#000000;stroke-width:2"
       id="noteHead" />
    <path
       d="M 584.25,292.56481 L 584.25,333.65238"
       style="fill:none;stroke:#000000;stroke-width:2"
       id="notePole" />
    <path
       d="M 584.55369,325 C 583.99119,319.10809 589.39624,316.84685 592.05369,313.92059 C 594.57965,311.13912 595.50236,307.93087 595.39917,304.92499 C 595.37162,304.12242 595.15374,300.64488 592.78472,297.15827 C 595.95264,305.90538 593.00319,309.41633 590.12176,312.20985 C 586.63182,315.59331 584.03564,318.78203 584.55369,325.42059 z "
       style="fill:#000000"
       name="noteTail" />
    <path
       d="M 584.67204,333 C 584.10954,326.63004 589.51459,324.3688 592.17204,321.44254 C 594.698,318.66107 595.62071,315.45282 595.51752,312.44694 C 595.48997,311.64437 595.27209,308.16683 592.90307,304.68022 C 596.07099,313.42733 593.12154,316.93828 590.24011,319.7318 C 586.75017,323.11526 584.15399,326.30398 584.67204,332.94254 z "
       style="fill:#000000"
       name="noteTail" />
    <path
       d="M 584.10639,318.49334 C 583.54389,312.18084 588.94894,309.9196 591.60639,306.99334 C 594.13235,304.21187 595.05506,301.00362 594.95187,297.99774 C 594.92432,297.19517 594.70644,293.71763 592.33742,290.23102 C 595.50534,298.97813 592.55589,302.48908 589.67446,305.2826 C 586.18452,308.66606 583.58834,311.85478 584.10639,318.49334 z "
       style="fill:#000000"
       name="noteTail" />
  </g>
</svg>